<svg width="33" height="40" viewBox="0 0 33 40" fill="none" xmlns="http://www.w3.org/2000/svg">
<path d="M32.5 14H25L13.5 20.5V27.5L7.5 24.5L2.5 29.5L8.5 34H11.5L14.5 36.5L27 39.5L25 30L32.5 19V14Z" fill="#5F5049" stroke="black" stroke-width="0.3"/>
<path d="M1.38304 15.9L2.88304 18.4C5.06868 4.38504 9.70751 3.09817 20.883 6.40001L21.383 3.40001C11.7618 -0.775097 5.7693 0.156842 1.38304 8.90002C0.865468 11.4971 0.879365 13.0459 1.38304 15.9Z" fill="#5F5049" stroke="black" stroke-width="0.4"/>
<path d="M10.5 5C2.99984 7.5002 1.50008 19.5001 7.50033 24.4999L13.0003 26.9999V20.4999L25.0003 13.4999C25.0003 6.99999 17.9997 3.49998 10.5 5Z" fill="#5F5049" stroke="black" stroke-width="0.3"/>
<path d="M32.5544 16.1398C32.6316 16.1098 32.6698 16.0228 32.6398 15.9456C32.6098 15.8684 32.5228 15.8302 32.4456 15.8602L32.5544 16.1398ZM14.5544 23.1398L32.5544 16.1398L32.4456 15.8602L14.4456 22.8602L14.5544 23.1398Z" fill="black"/>
<path d="M14 28L25.5 30.5" stroke="black" stroke-width="0.3"/>
<path d="M14 28L12 34.5" stroke="black" stroke-width="0.3"/>
</svg>
