<svg width="44" height="42" viewBox="0 0 44 42" fill="none" xmlns="http://www.w3.org/2000/svg">
<path d="M22.2118 0.793274C22.2118 1.36443 22.3704 1.58655 22.8464 1.58655C23.3224 1.58655 23.481 1.80867 23.481 2.37983C23.481 2.82407 23.3541 3.17311 23.1637 3.17311C23.0051 3.17311 22.8464 3.74427 22.8464 4.44236C22.8464 5.58467 22.7829 5.7116 22.0531 5.7116C21.2916 5.7116 21.2599 5.80679 21.2599 7.48854V9.29721L22.9099 9.10683C23.8301 8.9799 24.6234 8.75779 24.6868 8.5674C24.7503 8.40874 25.2897 8.25009 25.8926 8.25009C26.9397 8.25009 26.9715 8.21836 26.9715 6.98085C26.9715 6.28276 27.1301 5.7116 27.2888 5.7116C27.4792 5.7116 27.6061 6.40969 27.6061 7.29816C27.6061 8.1549 27.4792 8.88471 27.2888 8.88471C27.1301 8.88471 26.9715 9.10683 26.9715 9.36068C26.9715 9.61453 26.8445 9.83665 26.6541 9.83665C26.4955 9.83665 26.3368 10.1857 26.3368 10.6299C26.3368 11.3597 26.2099 11.4232 24.9089 11.4232C23.608 11.4232 23.481 11.3597 23.481 10.6299C23.481 10.1857 23.3541 9.83665 23.1637 9.83665C23.0051 9.83665 22.8464 10.3126 22.8464 10.9155C22.8464 11.9309 22.9099 11.9944 24.2108 12.1847C26.2416 12.5021 27.6061 11.804 27.6061 10.503C27.6061 9.96357 27.7965 9.83665 28.5263 9.83665C29.034 9.83665 29.5099 9.64626 29.5734 9.42414C29.6686 9.17029 30.684 9.01163 32.7782 8.94817C34.46 8.88471 35.8562 8.69432 35.8562 8.53567C35.8562 8.37701 36.0783 8.25009 36.3321 8.25009C36.6177 8.25009 36.8081 7.96451 36.8081 7.45681C36.8081 6.94911 36.9985 6.66353 37.3158 6.66353C37.6648 6.66353 37.76 6.85392 37.5696 7.36162C37.4745 7.77412 37.2206 8.12317 37.0937 8.18663C36.935 8.25009 36.8081 8.66259 36.8081 9.0751C36.8081 9.74145 36.6494 9.83665 35.6975 9.83665C34.7138 9.83665 34.5869 9.93184 34.5869 10.6299C34.5869 11.2963 34.4283 11.4232 33.635 11.4232C33.1273 11.4232 32.6831 11.5501 32.6831 11.7405C32.6831 11.8992 32.3657 12.0578 31.9532 12.0578C31.033 12.0578 30.0811 13.1684 30.208 14.0569C30.2715 14.5963 30.5571 14.7867 31.509 14.8502C32.1436 14.9136 32.6831 15.0723 32.6831 15.2627C32.6831 15.4213 33.6033 15.5482 34.7456 15.5482C37.0302 15.5482 37.5379 16.0559 35.5389 16.3733C34.46 16.5636 34.2696 16.6906 34.2696 17.3252C34.2696 18.055 34.1744 18.0867 32.2071 18.0867H30.1446V16.5002C30.1446 15.6117 30.0176 14.9136 29.8273 14.9136C29.3196 14.9136 29.4465 17.7377 29.9542 18.2771C30.2715 18.5944 31.1917 18.7214 33.1273 18.7214C35.3485 18.7214 35.8562 18.8165 35.8562 19.1973C35.8562 19.4512 36.0783 19.6733 36.3321 19.6733C36.6177 19.6733 36.8081 19.9589 36.8081 20.4666C36.8081 21.1012 36.9985 21.2598 37.9187 21.4502C38.5216 21.5454 39.1245 21.7675 39.2197 21.9262C39.3149 22.0849 40.2351 22.2118 41.2822 22.2118C42.3293 22.2118 43.1543 22.3387 43.1543 22.5291C43.1543 22.6877 42.5197 22.8464 41.7264 22.8464C40.4254 22.8464 40.2985 22.9099 40.2985 23.6397C40.2985 24.1474 40.1081 24.433 39.8226 24.433C39.5687 24.433 39.3466 24.1474 39.3466 23.8301C39.3466 23.3541 39.0293 23.1954 37.76 23.0051C36.9033 22.8781 36.1735 22.656 36.1735 22.4974C36.1735 22.3387 35.3802 22.2118 34.4283 22.2118H32.6831V23.481C32.6831 24.1791 32.81 24.7503 33.0004 24.7503C33.159 24.7503 33.3811 25.0993 33.5081 25.5435C33.6033 25.9878 33.8254 26.3368 33.984 26.3368C34.1427 26.3368 34.2696 26.6859 34.2696 27.1301C34.2696 27.8282 34.3965 27.9234 35.5389 27.9234C36.2369 27.9234 36.8081 28.0503 36.8081 28.2407C36.8081 28.3993 36.11 28.558 35.2215 28.558C34.3648 28.558 33.635 28.3993 33.635 28.2407C33.635 28.0503 33.4129 27.9234 33.159 27.9234C32.8734 27.9234 32.6831 27.6378 32.6831 27.1301C32.6831 26.4955 32.5244 26.3368 31.9215 26.3368C31.509 26.3368 31.0965 26.1147 30.9696 25.8609C30.8744 25.607 30.4936 25.3849 30.1446 25.3849C29.7955 25.3849 29.5099 25.607 29.5099 25.8609C29.5099 26.1147 29.6686 26.3368 29.8273 26.3368C30.0176 26.3368 30.1446 26.6859 30.1446 27.1301C30.1446 27.6378 30.335 27.9234 30.6205 27.9234C30.8744 27.9234 31.0965 28.1455 31.0965 28.3993C31.0965 28.6849 31.3821 28.8753 31.8898 28.8753H32.6831V32.0484C32.6831 34.6504 32.7783 35.2215 33.159 35.2215C33.4129 35.2215 33.635 35.4437 33.635 35.6975C33.635 35.9514 33.7936 36.1735 33.9523 36.1735C34.1427 36.1735 34.2696 36.5225 34.2696 36.9667C34.2696 37.4744 34.0792 37.76 33.7936 37.76C33.5081 37.76 33.1273 37.411 32.9369 36.9667C32.7148 36.4591 32.334 36.1735 31.8263 36.1735C31.2552 36.1735 31.0965 35.9831 31.0965 35.4119C31.0965 34.9994 30.8744 34.5869 30.6205 34.46C30.335 34.3648 30.1446 33.8571 30.1446 33.159C30.1446 32.5561 30.0176 32.0484 29.8273 32.0484C29.6686 32.0484 29.5099 31.8263 29.5099 31.5725C29.5099 31.2551 29.1926 31.0965 28.558 31.0965C27.7647 31.0965 27.6061 30.9696 27.6061 30.3032C27.6061 29.6686 27.4474 29.5099 26.8128 29.5099C26.1782 29.5099 26.0195 29.6686 26.0195 30.3032C26.0195 30.8109 26.2099 31.0965 26.4955 31.0965C26.7493 31.0965 26.9715 31.2551 26.9715 31.4455C26.9715 31.6359 26.7493 31.985 26.4955 32.2388C26.1782 32.5561 26.0195 33.3494 26.0195 34.46C26.0195 36.0783 25.9878 36.1735 25.2262 36.1735C24.7185 36.1735 24.433 35.9831 24.433 35.6975C24.433 35.4437 24.306 35.2215 24.1157 35.2215C23.9253 35.2215 23.7983 34.3331 23.7983 33.159C23.7983 31.985 23.9253 31.0965 24.1157 31.0965C24.306 31.0965 24.433 30.7474 24.433 30.3032C24.433 29.859 24.306 29.5099 24.1157 29.5099C23.957 29.5099 23.7983 29.859 23.7983 30.3032C23.7983 30.8109 23.608 31.0965 23.3224 31.0965C22.9416 31.0965 22.8464 31.5407 22.8464 33.159C22.8464 35.1581 22.8147 35.2215 22.0531 35.2215C21.5454 35.2215 21.2599 35.4119 21.2599 35.6975C21.2599 35.9514 21.1329 36.1735 20.9425 36.1735C20.7839 36.1735 20.6252 36.5225 20.6252 36.9667C20.6252 37.4427 20.4348 37.76 20.181 37.76C19.9271 37.76 19.6416 38.1091 19.5464 38.5533C19.4194 39.0293 19.1339 39.3466 18.7531 39.3466C18.3089 39.3466 18.1185 39.6639 17.9598 40.6158C17.6425 42.6149 17.1348 42.1072 17.1348 39.8225C17.1348 38.6802 17.2617 37.76 17.4204 37.76C17.579 37.76 17.7694 37.1889 17.8964 36.4908C18.055 35.5071 18.2454 35.2215 18.7214 35.2215C19.2291 35.2215 19.356 34.9994 19.356 34.1427C19.356 33.2542 19.2291 33.0321 18.6579 32.9369C18.1185 32.8734 17.8964 32.5879 17.8329 31.9532C17.7694 31.4773 17.579 31.0965 17.4204 31.0965C17.2617 31.0965 17.1348 30.7474 17.1348 30.3032C17.1348 29.5734 17.0396 29.5099 15.5483 29.5099C14.0569 29.5099 13.9617 29.5734 13.9617 30.3032C13.9617 30.8109 13.7713 31.0965 13.4857 31.0965C13.2319 31.0965 13.0098 31.3186 13.0098 31.5725C13.0098 31.8898 12.6925 32.0484 12.0578 32.0484C11.5501 32.0484 11.1059 32.1754 11.1059 32.3657C11.1059 32.5561 9.83665 32.683 7.93278 32.683H4.75967V33.4763C4.75967 33.984 4.56928 34.2696 4.2837 34.2696C4.02985 34.2696 3.80774 34.4917 3.80774 34.7456C3.80774 34.9994 3.68081 35.2215 3.49042 35.2215C2.72888 35.2215 3.20485 33.3177 4.25197 32.2388C5.14044 31.2869 5.52122 31.0965 6.63181 31.0965C7.80586 31.0965 7.93278 31.033 7.93278 30.3032C7.93278 29.6686 8.09144 29.5099 8.75779 29.5099C9.5828 29.5099 10.4713 28.8753 10.4713 28.2724C10.4713 28.082 10.1857 27.9234 9.86838 27.9234C8.82125 27.9234 8.25009 27.5743 8.25009 26.9397C8.25009 26.3368 7.80586 26.1782 6.37796 26.3051C5.33083 26.4003 4.12505 26.083 4.12505 25.7022C4.12505 25.5118 4.63275 25.3849 5.23564 25.3849C5.83853 25.3849 6.34622 25.2262 6.34622 25.0676C6.34622 24.8772 7.2347 24.7503 8.40875 24.7503H10.4713V23.7983V22.8464H7.61547C5.93372 22.8464 4.75967 22.7195 4.75967 22.5291C4.75967 22.3387 4.53755 22.2118 4.2837 22.2118C4.02985 22.2118 3.80774 21.9897 3.80774 21.7358C3.80774 21.482 3.68081 21.2598 3.49042 21.2598C3.33177 21.2598 3.10965 20.9108 2.98273 20.4666C2.82407 19.8319 2.57022 19.6733 1.84041 19.6733C0.888472 19.6733 0 19.0704 0 18.4358C0 18.2454 0.634622 18.0867 1.4279 18.0867C2.22118 18.0867 2.8558 18.2137 2.8558 18.404C2.8558 18.5627 3.14138 18.7214 3.45869 18.7214C3.80774 18.7214 4.2837 18.9435 4.56928 19.1973C4.82313 19.4829 5.61641 19.6733 6.44142 19.6733C7.6472 19.6733 7.90105 19.5781 8.05971 18.9435C8.1549 18.4992 8.0597 18.1185 7.77412 17.8963C7.52028 17.706 7.29816 17.1031 7.29816 16.5319C7.29816 15.8656 7.1395 15.5482 6.82219 15.5482C6.56834 15.5482 6.34622 15.3261 6.34622 15.0723C6.34622 14.755 5.99718 14.5963 5.23564 14.5963C4.34717 14.5963 4.12505 14.4694 4.12505 13.9617C4.12505 13.5492 4.41062 13.2636 4.91832 13.1367C5.99718 12.8828 7.29816 13.2319 7.29816 13.803C7.29816 14.4059 8.44048 15.5482 9.04337 15.5482C9.74146 15.5482 10.7886 16.5636 10.8203 17.2935C10.852 17.8329 10.8838 17.8012 11.1059 17.1348C11.4867 15.8973 11.4549 15.5482 10.9472 15.5482C10.6934 15.5482 10.4713 15.3261 10.4713 15.0723C10.4713 14.8184 10.3443 14.5963 10.154 14.5963C9.99531 14.5963 9.83665 14.2473 9.83665 13.803C9.83665 13.1684 9.67799 13.0098 9.0751 13.0098C8.09144 13.0098 7.93278 12.5338 7.93278 9.32895C7.93278 7.77412 7.80586 6.66353 7.61547 6.66353C7.45682 6.66353 7.29816 6.44141 7.29816 6.18756C7.29816 5.93372 7.07604 5.7116 6.82219 5.7116C6.56834 5.7116 6.34622 5.48948 6.34622 5.23563C6.34622 4.95005 6.06064 4.75966 5.55295 4.75966C4.98179 4.75966 4.75967 4.60101 4.75967 4.12504C4.75967 3.64907 4.98179 3.49042 5.55295 3.49042C6.12411 3.49042 6.34622 3.64907 6.34622 4.09331C6.34622 4.47408 6.63181 4.75967 7.1395 4.88659C7.58374 5.01351 7.93278 5.23563 7.93278 5.39429C7.93278 5.58467 8.37702 5.7116 8.88471 5.7116C9.77319 5.7116 9.83665 5.77506 9.83665 6.98085C9.83665 7.67893 9.99531 8.25009 10.154 8.25009C10.3443 8.25009 10.4713 8.59913 10.4713 9.04337C10.4713 9.4876 10.5982 9.83665 10.7569 9.83665C10.9155 9.83665 11.1376 10.1857 11.2328 10.6299C11.3915 11.2011 11.6453 11.4232 12.2165 11.4232C12.6607 11.4232 13.0098 11.5501 13.0098 11.7405C13.0098 11.8992 13.3588 12.0578 13.803 12.0578C14.2473 12.0578 14.5963 11.8992 14.5963 11.7405C14.5963 11.5501 14.3742 11.4232 14.1203 11.4232C13.8348 11.4232 13.6444 11.1376 13.6444 10.6617C13.6444 10.2174 13.8665 9.67799 14.1203 9.39241C14.6598 8.88471 14.7867 6.34622 14.279 6.34622C14.1204 6.34622 13.9617 6.06064 13.9617 5.7116C13.9617 5.36256 14.1204 5.07698 14.279 5.07698C14.4694 5.07698 14.5963 5.2039 14.5963 5.39429C14.5963 5.55294 14.9454 5.7116 15.3896 5.7116C16.056 5.7116 16.2146 5.90199 16.3733 6.98085C16.5002 7.67893 16.6906 8.25009 16.8492 8.25009C17.0079 8.25009 17.1348 8.94818 17.1348 9.83665C17.1348 11.0424 17.0079 11.4232 16.6588 11.4232C16.405 11.4232 16.1829 11.5501 16.1829 11.7405C16.1829 11.8992 16.5319 12.0578 16.9762 12.0578C17.7694 12.0578 17.7694 11.9944 17.7694 9.5828C17.7694 6.50488 17.9915 5.7116 18.7848 5.7116C19.5781 5.7116 20.3079 4.98178 20.3079 4.12504C20.3079 3.776 20.53 3.39523 20.7839 3.30003C21.1329 3.17311 21.2599 2.63368 21.2599 1.55482C21.2599 0.380775 21.3868 0 21.7358 0C22.0214 0 22.2118 0.285576 22.2118 0.793274ZM3.80774 26.9714C3.80774 27.3205 3.68081 27.6061 3.49042 27.6061C3.33177 27.6061 3.17311 27.3205 3.17311 26.9714C3.17311 26.6224 3.96639 25.7022 4.12505 25.7022C4.31543 25.7022 3.80774 26.6224 3.80774 26.9714ZM17.1348 31.8898C17.1348 32.5561 16.9444 32.7148 15.8656 32.8734C14.7867 33.0638 14.5963 33.1907 14.5963 33.8254C14.5963 34.2379 14.4694 34.5869 14.3107 34.5869C14.1521 34.5869 13.8982 34.8725 13.803 35.2215C13.454 36.3321 13.0098 35.8879 13.0098 34.3965C13.0098 33.0004 13.5175 32.0484 14.2473 32.0484C14.4377 32.0484 14.5963 31.8263 14.5963 31.5725C14.5963 31.2234 14.9454 31.0965 15.8656 31.0965C17.0079 31.0965 17.1348 31.1917 17.1348 31.8898ZM26.9715 36.8081C26.9715 37.1571 26.8445 37.4427 26.6541 37.4427C26.4955 37.4427 26.3368 37.1571 26.3368 36.8081C26.3368 36.4591 26.4955 36.1735 26.6541 36.1735C26.8445 36.1735 26.9715 36.4591 26.9715 36.8081ZM35.8562 38.0773C35.8562 38.236 35.5706 38.3946 35.2215 38.3946C34.8725 38.3946 34.5869 38.236 34.5869 38.0773C34.5869 37.887 34.8725 37.76 35.2215 37.76C35.5706 37.76 35.8562 37.887 35.8562 38.0773Z" fill="#5F5049"/>
</svg>
