<svg width="29" height="28" viewBox="0 0 29 28" fill="none" xmlns="http://www.w3.org/2000/svg">
<path d="M5.99994 15.7321C4.66661 14.9623 4.66661 13.0378 5.99995 12.268L25.4999 1.0097C26.8333 0.239902 28.4999 1.20215 28.4999 2.74175L28.4999 25.2584C28.4999 26.798 26.8333 27.7603 25.4999 26.9905L5.99994 15.7321Z" fill="#F1D177"/>
<path d="M5.78723 23.2128C5.78723 24.3174 4.8918 25.2128 3.78723 25.2128H2C0.895431 25.2128 -9.65644e-08 24.3174 0 23.2128L1.61081e-06 4.78731C1.70738e-06 3.68274 0.895432 2.78731 2 2.78731L3.78724 2.78731C4.8918 2.78731 5.78724 3.68274 5.78724 4.78731L5.78723 23.2128Z" fill="#F1D177"/>
</svg>
