<svg width="45" height="42" viewBox="0 0 45 42" fill="none" xmlns="http://www.w3.org/2000/svg">
<path d="M31.612 13.7847C33.0418 15.7086 33.8889 18.0999 33.8889 20.6912C33.8889 23.2825 33.0418 25.6738 31.612 27.5977M36.1667 5.24759C40.3605 9.04145 43 14.5548 43 20.6912C43 26.8276 40.3605 32.3409 36.1667 36.1348M5.64444 13.7847H7.69718C8.95207 13.7847 9.57951 13.7847 10.1609 13.6266C10.6761 13.4865 11.1629 13.2561 11.5992 12.9458C12.0916 12.5955 12.4933 12.1083 13.2967 11.134L19.2779 3.87967C20.2703 2.67605 20.7664 2.07424 21.1998 2.0116C21.5752 1.95736 21.9526 2.09549 22.2066 2.38002C22.5 2.70858 22.5 3.49196 22.5 5.05872V36.3236C22.5 37.8904 22.5 38.6739 22.2066 39.0024C21.9526 39.2869 21.5752 39.4251 21.1998 39.3707C20.7666 39.3081 20.2703 38.7063 19.2779 37.5028L13.2967 30.2484C12.4933 29.2741 12.0916 28.7868 11.5992 28.4366C11.1629 28.1263 10.6761 27.8958 10.1609 27.7559C9.57951 27.5977 8.95207 27.5977 7.69718 27.5977H5.64444C4.36877 27.5977 3.73093 27.5977 3.24369 27.3468C2.8151 27.126 2.46665 26.7738 2.24825 26.3407C2 25.8483 2 25.2035 2 23.9143V17.4682C2 16.1788 2 15.5342 2.24825 15.0417C2.46665 14.6085 2.8151 14.2564 3.24369 14.0356C3.73093 13.7847 4.36877 13.7847 5.64444 13.7847Z" stroke="#D9D9D9" stroke-width="4" stroke-linecap="round" stroke-linejoin="round"/>
</svg>
