<svg width="57" height="57" viewBox="0 0 57 57" fill="none" xmlns="http://www.w3.org/2000/svg">
<path d="M49.5 48.8661H49V49.3661V52.9375H9V49.3661V48.8661H8.5H5V8.13393H7.5H8V7.63393V4.0625H49V7.63393V8.13393H49.5H53V48.8661H49.5ZM49.5 53.9375H50V53.4375V49.8661H53.5H54V49.3661V7.63393V7.13393H53.5H50V3.5625V3.0625H49.5H7.5H7V3.5625V7.13393H4.5H4V7.63393V49.3661V49.8661H4.5H8V53.4375V53.9375H8.5H49.5ZM56.5 56.5H1.5V0.5H56.5V56.5Z" fill="black" fill-opacity="0.5" stroke="#685D4B"/>
<path d="M20.3952 13.9091L27.8952 26.0114H28.1225L35.6225 13.9091H39.7702L30.6225 28.4545L39.7702 43H35.6225L28.1225 31.125H27.8952L20.3952 43H16.2475L25.6225 28.4545L16.2475 13.9091H20.3952Z" fill="#7E786B"/>
</svg>
