<svg width="88" height="88" viewBox="0 0 88 88" fill="none" xmlns="http://www.w3.org/2000/svg">
<g clip-path="url(#clip0_139_60)">
<g filter="url(#filter0_dd_139_60)">
<path d="M44 80C66.0914 80 84 62.0914 84 40C84 17.9086 66.0914 0 44 0C21.9086 0 4 17.9086 4 40C4 62.0914 21.9086 80 44 80Z" fill="url(#paint0_linear_139_60)"/>
</g>
<g filter="url(#filter1_i_139_60)">
<path d="M26.4626 62.9999L27.6326 55.5899H40.1126L43.4926 34.5949H32.5726L33.7426 27.2499H52.3326L47.9126 55.5899H58.9626L57.7926 62.9999H26.4626ZM48.9526 21.2699C47.3059 21.2699 46.0709 20.8582 45.2476 20.0349C44.4243 19.1682 44.1209 18.0199 44.3376 16.5899C44.5976 15.1599 45.2693 14.0332 46.3526 13.2099C47.4359 12.3432 48.8009 11.9099 50.4476 11.9099C52.0509 11.9099 53.2643 12.3432 54.0876 13.2099C54.9543 14.0332 55.2576 15.1599 54.9976 16.5899C54.7809 18.0199 54.1309 19.1682 53.0476 20.0349C51.9643 20.8582 50.5993 21.2699 48.9526 21.2699Z" fill="#271F1F"/>
</g>
</g>
<defs>
<filter id="filter0_dd_139_60" x="0" y="-2.4" width="88" height="90.4" filterUnits="userSpaceOnUse" color-interpolation-filters="sRGB">
<feFlood flood-opacity="0" result="BackgroundImageFix"/>
<feColorMatrix in="SourceAlpha" type="matrix" values="0 0 0 0 0 0 0 0 0 0 0 0 0 0 0 0 0 0 127 0" result="hardAlpha"/>
<feOffset dy="4"/>
<feGaussianBlur stdDeviation="2"/>
<feComposite in2="hardAlpha" operator="out"/>
<feColorMatrix type="matrix" values="0 0 0 0 0 0 0 0 0 0 0 0 0 0 0 0 0 0 0.25 0"/>
<feBlend mode="normal" in2="BackgroundImageFix" result="effect1_dropShadow_139_60"/>
<feColorMatrix in="SourceAlpha" type="matrix" values="0 0 0 0 0 0 0 0 0 0 0 0 0 0 0 0 0 0 127 0" result="hardAlpha"/>
<feOffset/>
<feGaussianBlur stdDeviation="1.2"/>
<feComposite in2="hardAlpha" operator="out"/>
<feColorMatrix type="matrix" values="0 0 0 0 0 0 0 0 0 0 0 0 0 0 0 0 0 0 0.19 0"/>
<feBlend mode="normal" in2="effect1_dropShadow_139_60" result="effect2_dropShadow_139_60"/>
<feBlend mode="normal" in="SourceGraphic" in2="effect2_dropShadow_139_60" result="shape"/>
</filter>
<filter id="filter1_i_139_60" x="26.4626" y="11.9099" width="34.5" height="53.0901" filterUnits="userSpaceOnUse" color-interpolation-filters="sRGB">
<feFlood flood-opacity="0" result="BackgroundImageFix"/>
<feBlend mode="normal" in="SourceGraphic" in2="BackgroundImageFix" result="shape"/>
<feColorMatrix in="SourceAlpha" type="matrix" values="0 0 0 0 0 0 0 0 0 0 0 0 0 0 0 0 0 0 127 0" result="hardAlpha"/>
<feOffset dx="2" dy="4"/>
<feGaussianBlur stdDeviation="1"/>
<feComposite in2="hardAlpha" operator="arithmetic" k2="-1" k3="1"/>
<feColorMatrix type="matrix" values="0 0 0 0 0 0 0 0 0 0 0 0 0 0 0 0 0 0 0.46 0"/>
<feBlend mode="normal" in2="shape" result="effect1_innerShadow_139_60"/>
</filter>
<linearGradient id="paint0_linear_139_60" x1="44" y1="2" x2="44" y2="71.5" gradientUnits="userSpaceOnUse">
<stop stop-color="#C8A03F"/>
<stop offset="1" stop-color="#44381C"/>
</linearGradient>
<clipPath id="clip0_139_60">
<rect width="88" height="88" fill="white"/>
</clipPath>
</defs>
</svg>
