<svg width="27" height="20" viewBox="0 0 27 20" fill="none" xmlns="http://www.w3.org/2000/svg">
<path d="M9.42768 5.45303L0.754423 11.3869C0.428236 11.6101 0.477698 12.1056 0.841559 12.2599L17.7809 19.4426C18.1389 19.5944 18.5524 19.5249 18.8411 19.2644L26.4008 12.4437C26.6764 12.195 26.5945 11.7433 26.2491 11.6073L10.3588 5.34794C10.0502 5.22637 9.70142 5.26574 9.42768 5.45303Z" fill="#D2B47C" stroke="black" stroke-width="0.5"/>
<path d="M9.42768 3.37637L0.754423 9.31025C0.428236 9.53342 0.477698 10.029 0.841559 10.1832L17.7809 17.366C18.1389 17.5178 18.5524 17.4483 18.8411 17.1878L26.4008 10.367C26.6764 10.1184 26.5945 9.66666 26.2491 9.5306L10.3588 3.27128C10.0502 3.14971 9.70142 3.18908 9.42768 3.37637Z" fill="#D2B47C" stroke="black" stroke-width="0.5"/>
<path d="M9.42768 1.29946L0.754423 7.23335C0.428236 7.45651 0.477698 7.95205 0.841559 8.10634L17.7809 15.2891C18.1389 15.4409 18.5524 15.3714 18.8411 15.1109L26.4008 8.29014C26.6764 8.04146 26.5945 7.58975 26.2491 7.4537L10.3588 1.19437C10.0502 1.07281 9.70142 1.11218 9.42768 1.29946Z" fill="#D2B47C" stroke="black" stroke-width="0.5"/>
</svg>
