<svg width="32" height="25" viewBox="0 0 32 25" fill="none" xmlns="http://www.w3.org/2000/svg">
<rect x="7.38848" y="0.2" width="16.9581" height="23.9014" rx="1.8" fill="#30923C" stroke="black" stroke-width="0.4"/>
<rect x="8.9042" y="2.08608" width="14.0544" height="20.1298" rx="2.65" stroke="#181717" stroke-width="0.7"/>
<path d="M11.2827 10.2394L12.3435 14.6579H19.7689L20.8297 10.2394L19.2385 13.001H18.7081L17.6474 8.58252L17.117 13.001H15.5258L14.465 8.58252L13.9347 13.001H12.8739L11.2827 10.2394Z" fill="#010101" stroke="black" stroke-width="0.2"/>
<path d="M31.6782 12.747L25.1689 13.4407L25.1689 12.877L25.1689 12.3132L25.1689 11.7495L25.1689 11.1858L31.6782 12.747Z" fill="#30923C"/>
<path d="M1.86173e-08 11.8795L6.5093 11.1858L6.5093 11.7495L6.5093 12.3132L6.5093 12.877L6.5093 13.4407L1.86173e-08 11.8795Z" fill="#30923C"/>
</svg>
