<svg width="24" height="28" viewBox="0 0 24 28" fill="none" xmlns="http://www.w3.org/2000/svg">
<path d="M21.9007 24.9998L22.9999 22.9998C22.7514 21.8916 22.4391 21.2398 21.6663 20.3497C21.471 20.1247 21.3736 19.8285 21.411 19.5329C21.7997 16.4595 22.0013 14.029 22.8811 9.59098C22.9531 9.22802 22.8212 8.85232 22.5345 8.61835C20.0815 6.61618 18.3965 5.41219 14.9219 3.58721C14.8128 3.52993 14.7138 3.452 14.6312 3.36055C13.6997 2.32836 12.8988 1.77623 11.1157 1.08009C10.9793 1.02684 10.832 1.00431 10.6864 1.0197C9.76926 1.11663 9.30279 1.37771 8.92216 2.05857C8.77132 2.32841 8.79654 2.65877 8.95285 2.92547C9.60184 4.03282 10.1318 4.70671 10.9202 5.48677C11.2044 5.76798 11.2037 6.23095 10.908 6.5C9.76082 4.90085 9.01554 4.06803 7.06051 3C5.82824 3.07315 5.2841 3.32705 4.86195 4.5C5.64726 6.67877 6.80629 7.97188 8.70941 10L9.25904 12.4998C7.76636 10.15 6.83929 8.87173 4.31231 6.9998C3.02626 6.76557 2.51095 6.93035 2.11377 7.9998C3.25903 10.9959 4.80433 12.3 7.06051 14.4998V14.9998L2.66336 10.9998C1.22077 11.0237 0.925403 11.3904 1.01445 12.4998C2.00571 15.0905 2.98683 15.8497 4.86191 16.9998V17.4998C5.48596 19.4261 6.64381 20.9092 8.15977 22.5C10.2447 23.9684 10.7653 23.9683 12.5568 24.4998L14.7554 26.9998H16.4043V26.4998H18.0532V25.4998L18.6028 25.9998L21.9007 24.9998Z" fill="#AA803A" stroke="black" stroke-width="0.4"/>
<path d="M14.1913 3C11.3389 4.85709 9.79417 5 8.69489 8C8.42649 10.3281 7.01095 12.4778 10.3438 12L16.4232 7.5L17.5225 9.5C16.0523 9.74067 15.3129 10.1355 14.2247 11.5C13.5654 13.6847 13.6374 15.0158 14.2247 17.5" stroke="black" stroke-width="0.4"/>
<path d="M13.6416 3.5H14.7407L18.0385 5.5L16.3896 7.5L12.5422 10C11.4431 11 11.0784 11.1567 10.3438 11.5C9.67754 11.8353 9.30331 12.1023 8.69473 11.5C8.36417 11.2703 8.25707 10.7923 8.69481 9C8.78029 8.64999 9.34055 8.70168 9.24444 8C9.0758 6.76871 10.1843 5.41401 13.6416 3.5Z" fill="#AA803A"/>
</svg>
