<svg width="24" height="29" viewBox="0 0 24 29" fill="none" xmlns="http://www.w3.org/2000/svg">
<path d="M23.0002 10.0791H17.7621L9.73039 14.6188V19.5077L5.53992 17.4124L2.04785 20.9045L6.23833 24.0474H8.33357L10.4288 25.7934L19.159 27.8886L17.7621 21.2537L23.0002 13.5712V10.0791Z" fill="#AA803A" stroke="black" stroke-width="0.3"/>
<path d="M1.26752 11.4064L2.31514 13.1524C3.84162 3.36415 7.08144 2.46539 14.8866 4.77144L15.2358 2.6762C8.51618 -0.23975 4.33094 0.411128 1.26752 6.51747C0.906041 8.3313 0.915747 9.41302 1.26752 11.4064Z" fill="#AA803A" stroke="black" stroke-width="0.4"/>
<path d="M7.63546 3.79374C2.39725 5.53991 1.3498 13.9208 5.54045 17.4127L9.38172 19.1587V14.6191L17.7627 9.73018C17.7627 5.19056 12.8734 2.74611 7.63546 3.79374Z" fill="#AA803A" stroke="black" stroke-width="0.3"/>
<path d="M23.0545 11.6166C23.1317 11.5866 23.17 11.4996 23.1399 11.4224C23.1099 11.3452 23.023 11.307 22.9458 11.337L23.0545 11.6166ZM10.4831 16.5055L23.0545 11.6166L22.9458 11.337L10.3743 16.2259L10.4831 16.5055Z" fill="black"/>
<path d="M10.0801 19.8569L18.1118 21.603" stroke="black" stroke-width="0.3"/>
<path d="M10.0794 19.8567L8.68262 24.3964" stroke="black" stroke-width="0.3"/>
</svg>
